<svg xmlns="http://www.w3.org/2000/svg" xmlns:xlink="http://www.w3.org/1999/xlink" fill="#000000" height="50px" width="50px" version="1.1" id="Layer_1" viewBox="0 0 447 447" xml:space="preserve">
<g transform="translate(0 -540.36)">
	<g>
		<g>
			<path d="M381.5,672.16l-49.3-70.5v-53.8c0-4.1-3.4-7.5-7.5-7.5H122.1c-4.1,0-7.5,3.4-7.5,7.5v53.9l-49.3,71.7     c-0.9,1.3-1.3,2.7-1.3,4.3v302.1c0,4.1,3.4,7.5,7.5,7.5h304c4.1,0,7.5-3.4,7.5-7.5v-303.4     C382.9,674.96,382.4,673.46,381.5,672.16z M325.1,617.66l38.5,55h-77.7L325.1,617.66z M129.6,555.36h187.6v42.4H129.6V555.36z      M266.6,972.36H78.9v-284.7h187.7V972.36z M267.6,672.66H83.9l41.3-59.9v0h185l-42.2,59.3     C267.9,672.26,267.8,672.46,267.6,672.66z M367.9,972.36h-86.3v-284.7h86.3V972.36z"/>
			<path d="M170.2,921.26c38.3,0,68.3-26.9,68.3-61.2c0-26.5-18-49.1-43.4-58.2c4-1,8-2.2,11.2-3.8c12.8-5.7,28.8-26.1,30.6-28.4     c1.6-2.1,2-5,1-7.4c-1-2.5-3.3-4.2-5.9-4.6c-3.1-0.4-30.7-3.8-44.2,4.8c-8,4.7-15.6,18.6-19.5,26.8c-2-4.2-4.3-8.5-6.8-12.9     c-2.1-3.6-6.7-4.8-10.3-2.7c-3.6,2.1-4.8,6.7-2.7,10.3c3,5.2,5.6,10.3,7.8,15.2c-28.9,6.4-50.6,32.4-50.6,63.4     C105.7,896.56,132.8,921.26,170.2,921.26z M195.4,775.36c0.1-0.1,0.3-0.2,0.4-0.3c3.8-2.5,11.7-3.4,19.6-3.5     c-5.3,5.6-11.2,11-15.3,12.8c-0.1,0-0.2,0.1-0.3,0.1c-3.5,1.7-9,3-14.2,3.9C189.2,782.16,192.9,776.76,195.4,775.36z      M161.5,813.36c0.9,3,1.6,6.1,2.3,9.2c-4.1,0-7.4,3.4-7.4,7.5s3.4,7.5,7.5,7.5h8.8h7.6c4.1,0,7.5-3.4,7.5-7.5s-3.4-7.5-7.5-7.5     h-1.2c-0.6-3.3-1.3-6.5-2.1-9.6c26.2,3,46.5,22.9,46.5,47c0,25.9-23.4,46.2-53.3,46.2v0c-29.1,0-49.5-18-49.5-43.7     C120.7,837.96,138.3,817.46,161.5,813.36z"/>
		</g>
	</g>
</g>
</svg>